<?xml version="1.0" encoding="UTF-8" standalone="no"?>
<!-- Created with Inkscape (http://www.inkscape.org/) -->

<svg
   width="100.4406mm"
   height="92.91172mm"
   viewBox="0 0 100.4406 92.91172"
   version="1.1"
   id="svg1"
   inkscape:version="1.3 (0e150ed6c4, 2023-07-21)"
   sodipodi:docname="logo-old.svg"
   xmlns:inkscape="http://www.inkscape.org/namespaces/inkscape"
   xmlns:sodipodi="http://sodipodi.sourceforge.net/DTD/sodipodi-0.dtd"
   xmlns="http://www.w3.org/2000/svg"
   xmlns:svg="http://www.w3.org/2000/svg">
  <sodipodi:namedview
     id="namedview1"
     pagecolor="#ffffff"
     bordercolor="#000000"
     borderopacity="0.25"
     inkscape:showpageshadow="2"
     inkscape:pageopacity="0.0"
     inkscape:pagecheckerboard="0"
     inkscape:deskcolor="#d1d1d1"
     inkscape:document-units="mm"
     inkscape:zoom="3.9660279"
     inkscape:cx="147.75489"
     inkscape:cy="333.45706"
     inkscape:window-width="1289"
     inkscape:window-height="991"
     inkscape:window-x="1"
     inkscape:window-y="0"
     inkscape:window-maximized="0"
     inkscape:current-layer="layer1"
     showguides="false" />
  <defs
     id="defs1" />
  <g
     inkscape:label="Camada 1"
     inkscape:groupmode="layer"
     id="layer1"
     transform="translate(-76.829022,-46.04351)">
    <path
       style="fill:#ffffff;fill-opacity:1;stroke:#000000;stroke-width:1.665;stroke-linecap:round;stroke-linejoin:miter;stroke-miterlimit:4.5;stroke-dasharray:none;stroke-dashoffset:0;stroke-opacity:1"
       d="m 153.25096,84.811136 c -14.61464,-3.791051 -4.61178,-11.611282 -9.49838,-13.783947 -4.75214,-2.112885 -12.85696,0.08826 -19.66747,0.08826 -5.90857,0 -11.55416,-2.086168 -15.85864,0.5186 -6.87491,4.160212 1.13217,8.088134 -9.251601,15.891579 -2.452838,1.843317 3.369051,6.923848 10.813641,10.07212 5.62271,2.37781 7.05365,3.722862 7.62536,9.675842 0.45055,4.69135 0.0693,8.31643 -6.45046,14.88986 -1.62299,1.63635 -0.82385,6.13887 -0.63672,10.31187 0.0659,1.46972 2.59681,3.46284 4.68553,2.9509 12.54761,-3.07535 22.92333,1.18095 24.55017,-1.20082 0.90052,-1.3184 1.86708,-2.11346 1.60871,-4.10922 -0.49252,-3.80446 -0.15668,-7.50968 -1.10944,-8.19172 -6.76499,-4.84273 -6.58423,-12.3972 -6.23653,-16.38541 0.51002,-5.85018 3.27493,-6.527954 8.51514,-8.574423 8.60483,-3.360459 16.71315,-10.648326 10.91069,-12.153487 z"
       id="path1"
       sodipodi:nodetypes="sssssssssssssssss" />
    <path
       style="fill:#ffffff;fill-opacity:1;stroke:#000000;stroke-width:0.865;stroke-dasharray:none;stroke-opacity:1"
       d="m 136.89389,135.22609 c 0,0 -0.66644,1.83287 -3.10382,2.71578 -1.98992,0.72083 -5.44943,0.49703 -8.30115,0.6987 -3.34445,0.23652 -6.63952,0.17786 -8.50924,-0.71847 -1.40768,-0.67483 -1.83403,-2.22904 -1.83403,-2.22904 0,0 6.76713,-1.34756 10.18405,-1.42093 3.83249,-0.0823 11.56419,0.95396 11.56419,0.95396 z"
       id="path2"
       sodipodi:nodetypes="cssscsc" />
    <path
       style="fill:#ffffff;fill-opacity:1;stroke:#000000;stroke-width:0.264387;stroke-opacity:1"
       d="m 144.35809,98.334053 c 0.66612,4.269757 -4.26311,5.203777 -4.26311,5.203777 0,0 -4.92924,-0.93402 -3.86345,-3.20232 1.06578,-2.268317 8.12656,-2.001457 8.12656,-2.001457 z"
       id="path3-1" />
    <path
       style="fill:#ffffff;fill-opacity:1;stroke:#000000;stroke-width:1.365;stroke-dasharray:none;stroke-opacity:1"
       d="m 102.08196,93.213467 c 0,4.731856 -0.62405,7.521873 -1.00972,10.046303 -1.775564,11.62207 2.92835,12.55916 5.06658,15.33267 6.17634,8.01137 2.54733,7.64199 4.90597,3.86816 1.60322,-2.56515 6.71013,-6.87831 6.69854,-13.01969 -0.004,-2.23276 1.27504,-4.94653 -1.5057,-8.1847 -3.935,-4.582314 -14.15567,-8.042743 -14.15567,-8.042743 z"
       id="path4"
       sodipodi:nodetypes="csssssc" />
    <path
       style="fill:#ffffff;fill-opacity:1;stroke:#000000;stroke-width:0.665;stroke-dasharray:none;stroke-opacity:1"
       d="m 148.73465,93.435463 c 0,4.731787 0.62595,7.521767 1.01279,10.046167 1.78097,11.62191 -2.93726,12.55899 -5.082,15.33246 -6.19514,8.01126 -2.55508,7.64189 -4.9209,3.86811 -1.6081,-2.56512 -6.73056,-6.87822 -6.71893,-13.01951 0.004,-2.23273 -1.27892,-4.94647 1.51028,-8.18459 3.94698,-4.582264 14.19876,-8.042637 14.19876,-8.042637 z"
       id="path4-8"
       sodipodi:nodetypes="csssssc" />
    <path
       style="fill:#ffffff;fill-opacity:1;stroke:#000000;stroke-width:0.765;stroke-dasharray:none;stroke-opacity:1"
       d="m 107.73861,99.20611 c -0.38988,2.49519 1.03749,3.85116 2.29123,4.54725 2.43327,1.35099 6.80407,-0.51356 5.84768,-2.54588 -1.0674,-2.26822 -8.13891,-2.00137 -8.13891,-2.00137 z"
       id="path3"
       sodipodi:nodetypes="cssc" />
    <path
       style="fill:#ffffff;fill-opacity:1;stroke:#000000;stroke-width:0.767;stroke-dasharray:none;stroke-opacity:1"
       d="m 143.90209,98.801996 c 0.6784,4.267824 -2.22472,4.738904 -4.28974,5.107064 -1.82149,0.32475 -5.07207,-0.83924 -3.98664,-3.10652 1.08543,-2.267283 8.27638,-2.000544 8.27638,-2.000544 z"
       id="path3-6"
       sodipodi:nodetypes="cssc" />
    <path
       style="fill:#000000;fill-opacity:1;stroke:#000000;stroke-width:0.765;stroke-dasharray:none;stroke-opacity:1"
       d="m 105.11344,99.77376 c -1.33279,0.80639 -1.81026,1.44699 -2.4515,2.35699 -0.95098,1.34957 -1.92756,4.19243 -1.92756,4.19243 l 1.39475,-13.109711 6.27398,2.641677 2.0756,1.037802 c 0,0 2.71698,1.201113 3.821,2.452986 l 1.84665,2.093966 c -5.62456,-3.279845 -10.04551,-2.263563 -11.03292,-1.666138 z"
       id="path6"
       sodipodi:nodetypes="ssccccscss" />
    <path
       style="fill:#000000;fill-opacity:1;stroke:#000000;stroke-width:0.264583;stroke-opacity:1"
       d="m 115.42083,103.01233 c 0.99847,-0.31538 1.02681,0.20544 1.5692,0.87247 0.88295,1.08583 0.86017,1.17701 1.03259,2.45481 l -0.24183,-2.46836 -1.66782,-2.6685 -0.10006,1.0674 z"
       id="path7"
       sodipodi:nodetypes="csccccc" />
    <path
       style="fill:#000000;fill-opacity:1;stroke:#000000;stroke-width:0.865;stroke-linecap:round;stroke-linejoin:miter;stroke-miterlimit:4.5;stroke-dasharray:none;stroke-dashoffset:0;stroke-opacity:1"
       d="m 114.64342,132.11458 c 4.56627,-0.0712 10.32726,1.42751 10.32726,1.42751 0,0 6.70455,-1.85751 10.05271,-2.47752 3.08607,-0.57148 0.038,-2.76414 -0.63978,-4.08737 0,0 -5.79655,5.33278 -9.39789,5.3298 -3.41165,-0.003 -8.89453,-5.06379 -8.89453,-5.06379 0,0 -2.75575,4.89175 -1.44777,4.87137 z"
       id="path9"
       sodipodi:nodetypes="scscacs" />
    <path
       style="fill:#000000;fill-opacity:1;stroke:#000000;stroke-width:0.865;stroke-linecap:round;stroke-linejoin:miter;stroke-miterlimit:5;stroke-dasharray:none;stroke-dashoffset:0;stroke-opacity:1"
       d="m 103.88604,116.0739 c 0,0 3.14456,1.28869 4.10715,0.77938 1.13885,-0.60257 4.92036,-4.41145 4.92036,-4.41145 l -3.73867,9.97547 z"
       id="path10"
       sodipodi:nodetypes="csccc" />
    <path
       style="fill:#000000;fill-opacity:1;stroke:#000000;stroke-width:0.862802;stroke-linecap:round;stroke-linejoin:miter;stroke-miterlimit:5;stroke-dasharray:none;stroke-dashoffset:0;stroke-opacity:1"
       d="m 147.72965,114.77534 c 0,0 -3.12655,1.28954 -4.08363,0.77989 -1.13233,-0.60296 -4.89219,-4.41433 -4.89219,-4.41433 l 3.71727,9.98199 z"
       id="path10-4"
       sodipodi:nodetypes="csccc" />
    <path
       style="fill:#ffffff;fill-opacity:1;stroke:#000000;stroke-width:0.89463;stroke-linecap:round;stroke-linejoin:round;stroke-miterlimit:0.5"
       d="m 145.94744,73.960406 c -2.04322,-3.027688 4.64159,-4.907509 9.82143,-8.267124 14.28695,-9.266443 0.45155,-18.505834 0.45155,-18.505834 8.86593,-1.035613 18.06909,3.10433 16.18894,12.255227 -2.24526,10.927979 -10.48839,17.263329 -18.98794,24.887539 0,0 -12.32196,-2.073964 -7.47398,-10.369808 z"
       id="path5"
       sodipodi:nodetypes="cscscc" />
    <path
       style="fill:#ffffff;stroke:#000000;stroke-width:0.900901;stroke-linecap:round;stroke-linejoin:round;stroke-miterlimit:0.5;stroke-opacity:1;fill-opacity:1"
       d="M 105.1285,73.45048 C 99.866716,69.368159 96.489857,69.681252 93.25723,66.748459 77.232844,52.210372 95.564146,46.493917 95.564146,46.493917 83.828722,47.674245 73.935881,52.93336 78.333849,66.291875 c 4.080411,10.765574 11.39073,14.06362 20.535357,20.546108 0,0 8.723144,-0.186778 6.259294,-13.387503 z"
       id="path5-7"
       sodipodi:nodetypes="cscscc" />
    <path
       style="fill:#000000;fill-opacity:1;stroke:#000000;stroke-width:0.865;stroke-linecap:round;stroke-linejoin:round;stroke-miterlimit:0.5"
       d="m 104.83416,80.68006 c 0.47108,-7.415924 8.58719,-5.834831 11.18333,-5.175458 1.45124,0.368589 -0.89058,-3.411856 0.47733,-2.589821 2.37103,1.424859 6.79825,7.585154 9.17354,9.924595 2.63746,-2.696275 6.61393,-8.685788 9.77316,-9.91281 1.32843,-0.51595 -2.03649,3.394499 -0.4626,3.121415 2.09924,-0.364237 7.61171,-1.476203 10.46625,4.511015 0.4786,1.003845 1.75358,-0.681084 1.99529,0.953986 0.83172,5.626178 -1.17238,-7.59181 -2.30453,-9.290027 -0.48255,-0.723821 -2.08599,-1.85099 -4.15486,-1.992544 -2.78509,-0.190558 -6.95549,0.754813 -15.5014,0.71749 -6.043,-0.02639 -11.18191,-1.306072 -14.25457,-0.657524 -7.7765,1.641386 -6.48142,11.813998 -6.39094,10.389683 z"
       id="path11"
       sodipodi:nodetypes="ssscsssssssss" />
    <path
       style="fill:#000000;fill-opacity:1;stroke:#000000;stroke-width:0.865;stroke-linecap:square;stroke-linejoin:miter;stroke-miterlimit:10"
       d="m 105.63913,103.63775 c 0.0576,3.5098 1.24145,6.05814 1.70115,6.10418 2.86545,0.28698 7.93879,-3.56911 7.93879,-3.56911 0,0 -3.84469,0.83821 -5.97076,0.0667 -1.11424,-0.40433 -3.66918,-2.60178 -3.66918,-2.60178 z"
       id="path12"
       sodipodi:nodetypes="cscscc" />
    <path
       style="fill:#000000;fill-opacity:1;stroke:#000000;stroke-width:0.865;stroke-linecap:square;stroke-linejoin:miter;stroke-miterlimit:10"
       d="m 146.06754,104.37812 c -0.0576,3.50706 -1.24145,5.99904 -1.70115,6.0232 -2.86545,0.15057 -7.93879,-3.94703 -7.93879,-3.94703 0,0 3.84469,1.02123 5.97076,0.35093 1.11424,-0.35129 3.66918,-2.42711 3.66918,-2.42711 z"
       id="path12-1"
       sodipodi:nodetypes="cscscc" />
    <path
       style="fill:#ffffff;fill-opacity:1;stroke:#000000;stroke-width:2.865;stroke-linecap:square;stroke-linejoin:miter;stroke-miterlimit:10;stroke-dasharray:none;stroke-opacity:1"
       d="M 102.45934,93.496505 98.119439,89.25095 c 0,0 -3.518039,-0.532737 -5.509868,-0.05422 -3.331932,0.80046 -9.774122,2.978936 -9.774122,2.978936 0,0 6.412021,3.316218 10.049856,3.093903 8.899255,-0.54385 8.969855,7.861631 8.969855,7.861631 0.17178,-0.33415 0.1838,-5.820011 0.60418,-9.634695 z"
       id="path14"
       sodipodi:nodetypes="ccscscc" />
    <path
       style="fill:#ffffff;fill-opacity:1;stroke:#000000;stroke-width:2.165;stroke-linecap:square;stroke-linejoin:miter;stroke-miterlimit:10;stroke-dasharray:none;stroke-opacity:1"
       d="m 150.4994,103.09212 c 0,0 -2.09375,-8.463469 -1.81071,-9.595615 0.28303,-1.13215 3.49079,-2.452987 3.49079,-2.452987 l 2.83036,-3.207753 c 0,0 5.97201,-1.881859 8.15714,-0.970102 4.37065,1.82368 9.57984,1.724869 9.57984,1.724869 0,0 -6.48248,3.430132 -14.59373,5.412048 -3.96608,0.969079 -7.65369,9.08954 -7.65369,9.08954 z"
       id="path15"
       sodipodi:nodetypes="csccscsc" />
    <path
       style="fill:#ffffff;fill-opacity:1;stroke:#000000;stroke-width:0.865;stroke-linecap:square;stroke-linejoin:miter;stroke-miterlimit:10;stroke-opacity:1"
       d="m 98.341671,96.117231 c -4.05393,-1.22258 -12.482782,-2.386275 -12.482782,-2.386275 0.972771,5.020978 4.948361,2.009359 15.944261,7.671924 0.60051,-1.2771 -1.4451,-4.677553 -3.461479,-5.285649 z"
       id="path16"
       sodipodi:nodetypes="sccs" />
    <path
       style="fill:#ffffff;fill-opacity:1;stroke:#000000;stroke-width:0.839126;stroke-linecap:square;stroke-linejoin:miter;stroke-miterlimit:10;stroke-opacity:1"
       d="m 153.22674,97.642519 c 2.59897,-4.496389 14.30205,-6.198448 14.30205,-6.198448 -0.9118,5.04111 -9.44146,4.819341 -17.47983,12.639399 -0.56287,-1.28222 2.18385,-4.721391 3.17778,-6.440951 z"
       id="path16-6"
       sodipodi:nodetypes="sccs" />
    <path
       style="fill:#000000;stroke:#000000;stroke-width:0;stroke-linecap:square;stroke-miterlimit:5;stroke-dasharray:none"
       d="m 114.8551,118.42649 c 12.07763,-4.71474 9.61636,-5.06663 20.96862,-0.39691 0,0 -2.49264,-5.78106 -2.8764,-8.60655 -0.31737,-2.33676 -0.20797,-5.1725 -0.20797,-5.1725 0,0 -4.07032,-1.7902 -4.95142,-3.11153 -1.17349,-1.759816 -1.95765,-6.272272 -1.95765,-6.272272 0,0 -0.84338,4.043371 -1.91547,6.191502 -0.96552,1.93459 -5.67552,2.97458 -5.67552,2.97458 0,0 0.27465,2.2404 -0.39353,5.08325 -0.49178,2.09232 -2.99066,9.31045 -2.99066,9.31045 z"
       id="path8"
       sodipodi:nodetypes="ssscscscsss" />
    <path
       style="fill:#000000;fill-opacity:1;stroke:#000000;stroke-width:0;stroke-linecap:square;stroke-miterlimit:0;stroke-dasharray:none;stroke-opacity:1"
       d="m 147.01049,80.266983 c 0,0 5.63462,-1.678507 8.15811,-3.213597 2.4188,-1.471405 7.71036,-5.844831 7.71036,-5.844831 l -11.46545,12.660899 c 0,0 -2.40756,-0.278129 -3.16502,-0.899918 -0.71012,-0.582927 -1.238,-2.702553 -1.238,-2.702553 z"
       id="path13"
       sodipodi:nodetypes="csccsc" />
    <path
       style="fill:#000000;fill-opacity:1;stroke:#000000;stroke-width:0;stroke-linecap:square;stroke-miterlimit:0;stroke-dasharray:none;stroke-opacity:1"
       d="m 104.22679,83.153597 c 0,0 -3.84293,-1.240615 -6.69277,-1.75124 -2.271996,-0.407088 -9.176528,-3.863573 -9.176528,-3.863573 l 11.706058,9.075766 c 0,0 1.86375,-0.278129 2.45011,-0.899918 0.54972,-0.582927 1.71313,-2.561035 1.71313,-2.561035 z"
       id="path13-2"
       sodipodi:nodetypes="csccsc" />
    <path
       style="fill:#000000;fill-opacity:1;stroke:#000000;stroke-width:0;stroke-linecap:square;stroke-miterlimit:0;stroke-dasharray:none;stroke-opacity:1"
       d="M 98.176998,71.92793 C 89.43767,67.391486 86.102049,60.92038 86.102049,60.92038 c 0,0 2.668497,9.006178 12.074949,11.00755 z"
       id="path17" />
    <path
       style="fill:#000000;fill-opacity:1;stroke:#000000;stroke-width:0;stroke-linecap:square;stroke-miterlimit:0;stroke-dasharray:none;stroke-opacity:1"
       d="m 158.28489,67.925185 c 9.47317,-9.806726 7.00481,-13.876184 7.00481,-13.876184 0,0 4.26959,4.603157 -7.00481,13.876184 z"
       id="path18" />
  </g>
</svg>
